G04*
G04 #@! TF.GenerationSoftware,Altium Limited,Altium Designer,24.8.2 (39)*
G04*
G04 Layer_Color=8421504*
%FSLAX25Y25*%
%MOIN*%
G70*
G04*
G04 #@! TF.SameCoordinates,DAEAB18A-5E43-4365-A400-F89FC780B00D*
G04*
G04*
G04 #@! TF.FilePolarity,Positive*
G04*
G01*
G75*
%ADD15R,0.03543X0.05906*%
%ADD16R,0.02756X0.02756*%
%ADD17R,0.06299X0.05512*%
%ADD18R,0.04331X0.02362*%
%ADD19R,0.04331X0.01181*%
%ADD20R,0.05512X0.06299*%
D15*
X432425Y220272D02*
D03*
X438331D02*
D03*
X444236D02*
D03*
X450142D02*
D03*
X456047D02*
D03*
X461953D02*
D03*
X467858D02*
D03*
X473764D02*
D03*
X479669D02*
D03*
Y289169D02*
D03*
X473764D02*
D03*
X467858D02*
D03*
X461953D02*
D03*
X456047D02*
D03*
X450142D02*
D03*
X444236D02*
D03*
X438331D02*
D03*
X432425D02*
D03*
D16*
X456835Y258500D02*
D03*
Y262831D02*
D03*
Y254169D02*
D03*
X452504D02*
D03*
Y258500D02*
D03*
Y262831D02*
D03*
X461165D02*
D03*
Y258500D02*
D03*
Y254169D02*
D03*
D17*
X514000Y300905D02*
D03*
Y289094D02*
D03*
X504000Y300905D02*
D03*
Y289094D02*
D03*
D18*
X503224Y245902D02*
D03*
Y249051D02*
D03*
Y267949D02*
D03*
Y271098D02*
D03*
D19*
Y251610D02*
D03*
Y253579D02*
D03*
Y255547D02*
D03*
Y257516D02*
D03*
Y259484D02*
D03*
Y261453D02*
D03*
Y263421D02*
D03*
Y265390D02*
D03*
D20*
X508906Y221000D02*
D03*
X497094D02*
D03*
M02*
