G04*
G04 #@! TF.GenerationSoftware,Altium Limited,Altium Designer,24.8.2 (39)*
G04*
G04 Layer_Color=128*
%FSLAX25Y25*%
%MOIN*%
G70*
G04*
G04 #@! TF.SameCoordinates,DAEAB18A-5E43-4365-A400-F89FC780B00D*
G04*
G04*
G04 #@! TF.FilePolarity,Positive*
G04*
G01*
G75*
%ADD11C,0.00500*%
D11*
X451913Y260665D02*
X453094D01*
X452504Y260075D02*
Y261256D01*
X454079Y262831D02*
X455260D01*
X454669Y262240D02*
Y263421D01*
X458410Y262831D02*
X459590D01*
X459000Y262240D02*
Y263421D01*
X451913Y256335D02*
X453094D01*
X452504Y255744D02*
Y256925D01*
X456244Y260665D02*
X457425D01*
X456835Y260075D02*
Y261256D01*
X454079Y258500D02*
X455260D01*
X454669Y257909D02*
Y259090D01*
X454079Y254169D02*
X455260D01*
X454669Y253579D02*
Y254760D01*
X456244Y256335D02*
X457425D01*
X456835Y255744D02*
Y256925D01*
X460575Y260665D02*
X461756D01*
X461165Y260075D02*
Y261256D01*
X460575Y256335D02*
X461756D01*
X461165Y255744D02*
Y256925D01*
X458410Y258500D02*
X459590D01*
X459000Y257909D02*
Y259090D01*
X458410Y254169D02*
X459590D01*
X459000Y253579D02*
Y254760D01*
X479563Y302500D02*
X487437D01*
X483500Y298563D02*
Y306437D01*
X517563Y225000D02*
X525437D01*
X521500Y221063D02*
Y228937D01*
X407835Y205500D02*
X412165D01*
X410000Y203335D02*
Y207665D01*
X417835Y205500D02*
X422165D01*
X420000Y203335D02*
Y207665D01*
X427835Y205500D02*
X432165D01*
X430000Y203335D02*
Y207665D01*
X447835Y205500D02*
X452165D01*
X450000Y203335D02*
Y207665D01*
X457835Y205500D02*
X462165D01*
X460000Y203335D02*
Y207665D01*
X477835Y205500D02*
X482165D01*
X480000Y203335D02*
Y207665D01*
X497835Y205500D02*
X502165D01*
X500000Y203335D02*
Y207665D01*
X517835Y205500D02*
X522165D01*
X520000Y203335D02*
Y207665D01*
X507835Y205500D02*
X512165D01*
X510000Y203335D02*
Y207665D01*
X487835Y205500D02*
X492165D01*
X490000Y203335D02*
Y207665D01*
X467835Y205500D02*
X472165D01*
X470000Y203335D02*
Y207665D01*
X437835Y205500D02*
X442165D01*
X440000Y203335D02*
Y207665D01*
X417835Y305500D02*
X422165D01*
X420000Y303335D02*
Y307665D01*
X407835Y305500D02*
X412165D01*
X410000Y303335D02*
Y307665D01*
X427835Y305500D02*
X432165D01*
X430000Y303335D02*
Y307665D01*
X437835Y305500D02*
X442165D01*
X440000Y303335D02*
Y307665D01*
X522319Y236374D02*
X524681D01*
X523500Y235193D02*
Y237555D01*
X506571Y280626D02*
X508933D01*
X507752Y279445D02*
Y281807D01*
X506571Y236374D02*
X508933D01*
X507752Y235193D02*
Y237555D01*
X522319Y280626D02*
X524681D01*
X523500Y279445D02*
Y281807D01*
X495957Y267940D02*
X497457D01*
X496707Y267190D02*
Y268690D01*
X496584Y262834D02*
X498084D01*
X497334Y262084D02*
Y263584D01*
X496699Y257350D02*
X498199D01*
X497449Y256600D02*
Y258100D01*
X443500Y288750D02*
X445000D01*
X444250Y288000D02*
Y289500D01*
X442250Y253000D02*
X443750D01*
X443000Y252250D02*
Y253750D01*
X464250Y227000D02*
X465750D01*
X465000Y226250D02*
Y227750D01*
X448250Y271000D02*
X449750D01*
X449000Y270250D02*
Y271750D01*
X478919Y220272D02*
X480419D01*
X479669Y219522D02*
Y221022D01*
X485750Y253000D02*
X487250D01*
X486500Y252250D02*
Y253750D01*
X466750Y234000D02*
X468250D01*
X467500Y233250D02*
Y234750D01*
X431675Y220272D02*
X433175D01*
X432425Y219522D02*
Y221022D01*
X431675Y289169D02*
X433175D01*
X432425Y288419D02*
Y289919D01*
X468467Y283500D02*
X469967D01*
X469217Y282750D02*
Y284250D01*
X483750Y276000D02*
X485250D01*
X484500Y275250D02*
Y276750D01*
X463250Y273500D02*
X464750D01*
X464000Y272750D02*
Y274250D01*
X451250Y238000D02*
X452750D01*
X452000Y237250D02*
Y238750D01*
X489750Y284500D02*
X491250D01*
X490500Y283750D02*
Y285250D01*
X446250Y233500D02*
X447750D01*
X447000Y232750D02*
Y234250D01*
X497188Y251692D02*
X498688D01*
X497938Y250941D02*
Y252442D01*
X481250Y213500D02*
X482750D01*
X482000Y212750D02*
Y214250D01*
X437581Y220272D02*
X439081D01*
X438331Y219522D02*
Y221022D01*
X489750Y223000D02*
X491250D01*
X490500Y222250D02*
Y223750D01*
X442250Y258882D02*
X443750D01*
X443000Y258132D02*
Y259632D01*
X432250Y269595D02*
X433750D01*
X433000Y268845D02*
Y270344D01*
X513750Y300500D02*
X515250D01*
X514500Y299750D02*
Y301250D01*
X503250Y301000D02*
X504750D01*
X504000Y300250D02*
Y301750D01*
X489250Y289618D02*
X490750D01*
X490000Y288868D02*
Y290368D01*
X474750Y266500D02*
X476250D01*
X475500Y265750D02*
Y267250D01*
X487750Y266000D02*
X489250D01*
X488500Y265250D02*
Y266750D01*
X483250Y266500D02*
X484750D01*
X484000Y265750D02*
Y267250D01*
M02*
