G04*
G04 #@! TF.GenerationSoftware,Altium Limited,Altium Designer,24.8.2 (39)*
G04*
G04 Layer_Color=32768*
%FSLAX25Y25*%
%MOIN*%
G70*
G04*
G04 #@! TF.SameCoordinates,DAEAB18A-5E43-4365-A400-F89FC780B00D*
G04*
G04*
G04 #@! TF.FilePolarity,Positive*
G04*
G01*
G75*
%ADD10C,0.00787*%
%ADD11C,0.00500*%
%ADD58C,0.00394*%
D10*
X485004Y289555D02*
G03*
X485004Y289555I-394J0D01*
G01*
X439457Y226307D02*
X446543D01*
X439457D02*
Y239693D01*
X446543D01*
Y226307D02*
Y239693D01*
X430457Y225807D02*
X437543D01*
X430457D02*
Y239193D01*
X437543D01*
Y225807D02*
Y239193D01*
D11*
X459610Y267705D02*
Y293295D01*
X473390Y267705D02*
Y293295D01*
X459610D02*
X473390D01*
X459610Y267705D02*
X473390D01*
D58*
X429457Y282193D02*
X436543D01*
X429457Y268807D02*
X436543D01*
X429457D02*
Y282193D01*
X436543Y268807D02*
Y282193D01*
X439457Y270693D02*
X446543D01*
X439457Y257307D02*
X446543D01*
X439457D02*
Y270693D01*
X446543Y257307D02*
Y270693D01*
X456457Y236307D02*
X463543D01*
X456457Y249693D02*
X463543D01*
Y236307D02*
Y249693D01*
X456457Y236307D02*
Y249693D01*
X456543Y218807D02*
Y232193D01*
X449457Y218807D02*
Y232193D01*
Y218807D02*
X456543D01*
X449457Y232193D02*
X456543D01*
X481213Y228752D02*
Y235248D01*
X494008Y228752D02*
Y235248D01*
X481213Y228752D02*
X494008D01*
X481213Y235248D02*
X494008D01*
Y237752D02*
Y244248D01*
X481213Y237752D02*
Y244248D01*
X494008D01*
X481213Y237752D02*
X494008D01*
X492598Y255957D02*
Y263043D01*
X479213Y255957D02*
Y263043D01*
X492598D01*
X479213Y255957D02*
X492598D01*
X493898Y246752D02*
Y253248D01*
X481102Y246752D02*
Y253248D01*
X493898D01*
X481102Y246752D02*
X493898D01*
X493543Y277807D02*
Y291193D01*
X486457Y277807D02*
Y291193D01*
Y277807D02*
X493543D01*
X486457Y291193D02*
X493543D01*
X459925Y294957D02*
X473311D01*
X459925Y302043D02*
X473311D01*
X459925Y294957D02*
Y302043D01*
X473311Y294957D02*
Y302043D01*
M02*
