G04*
G04 #@! TF.GenerationSoftware,Altium Limited,Altium Designer,24.8.2 (39)*
G04*
G04 Layer_Color=8388736*
%FSLAX25Y25*%
%MOIN*%
G70*
G04*
G04 #@! TF.SameCoordinates,DAEAB18A-5E43-4365-A400-F89FC780B00D*
G04*
G04*
G04 #@! TF.FilePolarity,Negative*
G04*
G01*
G75*
%ADD21R,0.04343X0.06706*%
%ADD22R,0.03556X0.03556*%
%ADD23R,0.07099X0.06312*%
%ADD24R,0.05131X0.03162*%
%ADD25R,0.05131X0.01981*%
%ADD26R,0.06312X0.07099*%
%ADD27C,0.14580*%
%ADD28C,0.07099*%
G04:AMPARAMS|DCode=29|XSize=70.99mil|YSize=70.99mil|CornerRadius=19.75mil|HoleSize=0mil|Usage=FLASHONLY|Rotation=180.000|XOffset=0mil|YOffset=0mil|HoleType=Round|Shape=RoundedRectangle|*
%AMROUNDEDRECTD29*
21,1,0.07099,0.03150,0,0,180.0*
21,1,0.03150,0.07099,0,0,180.0*
1,1,0.03950,-0.01575,0.01575*
1,1,0.03950,0.01575,0.01575*
1,1,0.03950,0.01575,-0.01575*
1,1,0.03950,-0.01575,-0.01575*
%
%ADD29ROUNDEDRECTD29*%
%ADD30O,0.09461X0.04737*%
%ADD31O,0.07887X0.04737*%
D21*
X432425Y220272D02*
D03*
X438331D02*
D03*
X444236D02*
D03*
X450142D02*
D03*
X456047D02*
D03*
X461953D02*
D03*
X467858D02*
D03*
X473764D02*
D03*
X479669D02*
D03*
Y289169D02*
D03*
X473764D02*
D03*
X467858D02*
D03*
X461953D02*
D03*
X456047D02*
D03*
X450142D02*
D03*
X444236D02*
D03*
X438331D02*
D03*
X432425D02*
D03*
D22*
X456835Y258500D02*
D03*
Y262831D02*
D03*
Y254169D02*
D03*
X452504D02*
D03*
Y258500D02*
D03*
Y262831D02*
D03*
X461165D02*
D03*
Y258500D02*
D03*
Y254169D02*
D03*
D23*
X514000Y300905D02*
D03*
Y289094D02*
D03*
X504000Y300905D02*
D03*
Y289094D02*
D03*
D24*
X503224Y245902D02*
D03*
Y249051D02*
D03*
Y267949D02*
D03*
Y271098D02*
D03*
D25*
Y251610D02*
D03*
Y253579D02*
D03*
Y255547D02*
D03*
Y257516D02*
D03*
Y259484D02*
D03*
Y261453D02*
D03*
Y263421D02*
D03*
Y265390D02*
D03*
D26*
X508906Y221000D02*
D03*
X497094D02*
D03*
D27*
X483500Y302500D02*
D03*
X521500Y225000D02*
D03*
D28*
X410000Y205500D02*
D03*
X420000D02*
D03*
X430000D02*
D03*
X450000D02*
D03*
X460000D02*
D03*
X480000D02*
D03*
X500000D02*
D03*
X510000D02*
D03*
X490000D02*
D03*
X470000D02*
D03*
X440000D02*
D03*
X420000Y305500D02*
D03*
X430000D02*
D03*
X440000D02*
D03*
D29*
X520000Y205500D02*
D03*
X410000Y305500D02*
D03*
D30*
X523500Y236374D02*
D03*
Y280626D02*
D03*
D31*
X507752D02*
D03*
Y236374D02*
D03*
M02*
