G04*
G04 #@! TF.GenerationSoftware,Altium Limited,Altium Designer,24.8.2 (39)*
G04*
G04 Layer_Physical_Order=2*
G04 Layer_Color=16711680*
%FSLAX25Y25*%
%MOIN*%
G70*
G04*
G04 #@! TF.SameCoordinates,DAEAB18A-5E43-4365-A400-F89FC780B00D*
G04*
G04*
G04 #@! TF.FilePolarity,Positive*
G04*
G01*
G75*
%ADD32C,0.01000*%
%ADD33C,0.01575*%
%ADD34C,0.13780*%
%ADD35C,0.06299*%
G04:AMPARAMS|DCode=36|XSize=62.99mil|YSize=62.99mil|CornerRadius=15.75mil|HoleSize=0mil|Usage=FLASHONLY|Rotation=180.000|XOffset=0mil|YOffset=0mil|HoleType=Round|Shape=RoundedRectangle|*
%AMROUNDEDRECTD36*
21,1,0.06299,0.03150,0,0,180.0*
21,1,0.03150,0.06299,0,0,180.0*
1,1,0.03150,-0.01575,0.01575*
1,1,0.03150,0.01575,0.01575*
1,1,0.03150,0.01575,-0.01575*
1,1,0.03150,-0.01575,-0.01575*
%
%ADD36ROUNDEDRECTD36*%
%ADD37O,0.08661X0.03937*%
%ADD38O,0.07087X0.03937*%
%ADD39C,0.02500*%
%ADD40R,0.06299X0.04134*%
%ADD41R,0.07480X0.05906*%
%ADD42R,0.06693X0.04331*%
%ADD43R,0.06693X0.03740*%
%ADD44R,0.04331X0.06496*%
%ADD45R,0.05906X0.07480*%
%ADD46R,0.08465X0.03740*%
%ADD47R,0.08465X0.12795*%
%ADD48R,0.04331X0.06693*%
D32*
X494150Y266695D02*
X495467Y265378D01*
X499122D01*
X501500Y263000D01*
X501560Y267940D02*
X503500Y266000D01*
X496707Y267940D02*
X501560D01*
X497334Y262834D02*
X497422Y262746D01*
Y257377D02*
Y262746D01*
Y257377D02*
X497449Y257350D01*
X503500Y250000D02*
Y266000D01*
X494150Y266695D02*
Y271150D01*
X501500Y251000D02*
Y263000D01*
X494150Y271150D02*
X499500Y276500D01*
X491264Y260047D02*
X491811Y259500D01*
X491264Y271764D02*
X495000Y275500D01*
X491264Y260047D02*
Y271764D01*
X490000Y289618D02*
X490835D01*
X477980D02*
X490000D01*
X473000Y276000D02*
X484500D01*
X471500Y261500D02*
Y274500D01*
X473000Y276000D01*
X471500Y261500D02*
X473500Y259500D01*
X480000D01*
X496987Y254513D02*
X497928Y253572D01*
X490486Y254513D02*
X496987D01*
X489500Y253527D02*
X490486Y254513D01*
X489500Y233500D02*
Y253527D01*
X491000Y232000D02*
X493221D01*
X489500Y233500D02*
X491000Y232000D01*
X497928Y251701D02*
Y253572D01*
Y251701D02*
X497938Y251692D01*
X497248Y243748D02*
X503500Y250000D01*
X494886Y243748D02*
X497248D01*
X494610Y248500D02*
X499000D01*
X501500Y251000D01*
X493110Y250000D02*
X494610Y248500D01*
X402000Y290000D02*
X406500Y294500D01*
X442500D02*
X444500Y292500D01*
X406500Y294500D02*
X442500D01*
X402000Y218500D02*
Y290000D01*
Y218500D02*
X406000Y214500D01*
X444500Y289000D02*
Y292500D01*
X444000Y288500D02*
X444500Y289000D01*
X411000Y214500D02*
X420000Y205500D01*
X406000Y214500D02*
X411000D01*
X449000Y255000D02*
Y271000D01*
X447000Y253000D02*
X449000Y255000D01*
X443000Y253000D02*
X447000D01*
X457500Y214000D02*
X465000Y221500D01*
Y227000D01*
X438500Y214000D02*
X457500D01*
X430000Y205500D02*
X438500Y214000D01*
X493221Y242083D02*
X494886Y243748D01*
X493221Y241000D02*
Y242083D01*
X499500Y276500D02*
Y296500D01*
X492500Y291283D02*
Y303500D01*
X490835Y289618D02*
X492500Y291283D01*
X523500Y280626D02*
Y300500D01*
X514500Y309500D02*
X523500Y300500D01*
X498500Y309500D02*
X514500D01*
X492500Y303500D02*
X498500Y309500D01*
X499500Y296500D02*
X504000Y301000D01*
X500500Y307500D02*
X511500D01*
X514500Y300500D02*
Y304500D01*
X511500Y307500D02*
X514500Y304500D01*
X495000Y302000D02*
X500500Y307500D01*
X495000Y275500D02*
Y302000D01*
X490213Y222713D02*
X490500Y223000D01*
X482000Y213500D02*
X490213Y221713D01*
Y222713D01*
X438331Y220272D02*
X438441Y220382D01*
X453000D01*
X432425Y288763D02*
X433000Y288189D01*
Y281405D02*
Y288189D01*
X432425Y288763D02*
Y289169D01*
X455083Y273047D02*
Y279787D01*
X457630Y270500D02*
X464500D01*
X455083Y273047D02*
X457630Y270500D01*
X455083Y279787D02*
Y281914D01*
X468000Y267000D02*
Y277500D01*
Y250000D02*
Y267000D01*
X464500Y270500D02*
X468000Y267000D01*
X464000Y273500D02*
Y278283D01*
X469217Y283500D01*
X480702Y283284D02*
X481917Y284500D01*
X490500D01*
X477917Y280500D02*
X479331D01*
X480702Y281870D01*
Y283284D01*
X483064Y271436D02*
X488500Y266000D01*
X477917Y271445D02*
X477926Y271436D01*
X483064D01*
X488500Y266000D02*
Y277882D01*
X490000Y279382D01*
X468000Y277500D02*
X471000Y280500D01*
X477917D01*
X466118Y248118D02*
X468000Y250000D01*
X460000Y248118D02*
X466118D01*
X455083Y281914D02*
X458815Y285647D01*
X461500Y286917D02*
Y298500D01*
X460229Y285647D02*
X461500Y286917D01*
X458815Y285647D02*
X460229D01*
X443000Y269118D02*
X444151D01*
X445817Y270783D01*
Y271935D01*
X449936Y276054D01*
X451350D01*
X455083Y279787D01*
X452000Y238000D02*
Y240118D01*
X457183Y245302D01*
Y246453D02*
X458849Y248118D01*
X460000D01*
X457183Y245302D02*
Y246453D01*
X443674Y230174D02*
X447000Y233500D01*
X443000Y227193D02*
X443674Y227867D01*
Y230174D01*
X433795Y226988D02*
X434000D01*
X432425Y225618D02*
X433795Y226988D01*
X432425Y220272D02*
Y225618D01*
X442795Y226988D02*
X443000Y227193D01*
X434000Y226988D02*
X442795D01*
X464261Y237239D02*
X467500Y234000D01*
X460000Y237882D02*
X460643Y237239D01*
X464261D01*
X479669Y220272D02*
Y225169D01*
X482000Y227500D01*
Y232000D02*
Y241000D01*
Y227500D02*
Y232000D01*
X453000Y230618D02*
X480618D01*
X482000Y232000D01*
X448260Y237240D02*
X450802Y234698D01*
Y232283D02*
Y234698D01*
X444567Y237240D02*
X448260D01*
X450802Y232283D02*
X452468Y230618D01*
X453000D01*
X434000Y238012D02*
X442205D01*
X443000Y238807D01*
X444567Y237240D01*
X482000Y227500D02*
X483500Y226000D01*
X498500D01*
X506073Y233573D01*
Y235017D01*
X507430Y236374D02*
X507752D01*
X506073Y235017D02*
X507430Y236374D01*
X480000Y253334D02*
X480224Y253109D01*
Y251665D02*
X481890Y250000D01*
X480224Y251665D02*
Y253109D01*
X480000Y253334D02*
Y259500D01*
X482000Y241000D02*
Y249890D01*
X481890Y250000D02*
X482000Y249890D01*
X473171Y293829D02*
X474661Y292339D01*
Y290925D02*
Y292339D01*
X473171Y293829D02*
Y297065D01*
X474661Y290925D02*
X476031Y289555D01*
X477917D01*
X471736Y298500D02*
X473171Y297065D01*
X471736Y298500D02*
Y303264D01*
X477917Y289555D02*
X477980Y289618D01*
X469500Y305500D02*
X471736Y303264D01*
X440000Y305500D02*
X469500D01*
X410000D02*
X417000Y298500D01*
X461500D01*
X486500Y264000D02*
X488500Y266000D01*
X486500Y253000D02*
Y264000D01*
X475500Y266500D02*
X484000D01*
D33*
X452504Y260665D02*
D03*
X454669Y262831D02*
D03*
X459000D02*
D03*
X452504Y256335D02*
D03*
X456835Y260665D02*
D03*
X454669Y258500D02*
D03*
Y254169D02*
D03*
X456835Y256335D02*
D03*
X461165Y260665D02*
D03*
Y256335D02*
D03*
X459000Y258500D02*
D03*
Y254169D02*
D03*
D34*
X483500Y302500D02*
D03*
X521500Y225000D02*
D03*
D35*
X410000Y205500D02*
D03*
X420000D02*
D03*
X430000D02*
D03*
X450000D02*
D03*
X460000D02*
D03*
X480000D02*
D03*
X500000D02*
D03*
X510000D02*
D03*
X490000D02*
D03*
X470000D02*
D03*
X440000D02*
D03*
X420000Y305500D02*
D03*
X430000D02*
D03*
X440000D02*
D03*
D36*
X520000Y205500D02*
D03*
X410000Y305500D02*
D03*
D37*
X523500Y236374D02*
D03*
Y280626D02*
D03*
D38*
X507752D02*
D03*
Y236374D02*
D03*
D39*
X496707Y267940D02*
D03*
X497334Y262834D02*
D03*
X497449Y257350D02*
D03*
X444250Y288750D02*
D03*
X443000Y253000D02*
D03*
X465000Y227000D02*
D03*
X449000Y271000D02*
D03*
X479669Y220272D02*
D03*
X486500Y253000D02*
D03*
X467500Y234000D02*
D03*
X432425Y220272D02*
D03*
Y289169D02*
D03*
X469217Y283500D02*
D03*
X484500Y276000D02*
D03*
X464000Y273500D02*
D03*
X452000Y238000D02*
D03*
X490500Y284500D02*
D03*
X447000Y233500D02*
D03*
X497938Y251692D02*
D03*
X482000Y213500D02*
D03*
X438331Y220272D02*
D03*
X490500Y223000D02*
D03*
X443000Y258882D02*
D03*
X433000Y269595D02*
D03*
X514500Y300500D02*
D03*
X504000Y301000D02*
D03*
X490000Y289618D02*
D03*
X475500Y266500D02*
D03*
X488500Y266000D02*
D03*
X484000Y266500D02*
D03*
D40*
X443000Y238807D02*
D03*
Y227193D02*
D03*
D41*
X433000Y281405D02*
D03*
Y269595D02*
D03*
D42*
X443000Y269118D02*
D03*
Y258882D02*
D03*
X460000Y237882D02*
D03*
Y248118D02*
D03*
X453000Y220382D02*
D03*
Y230618D02*
D03*
X490000Y279382D02*
D03*
Y289618D02*
D03*
D43*
X434000Y238012D02*
D03*
Y226988D02*
D03*
D44*
X482000Y232000D02*
D03*
X493221D02*
D03*
Y241000D02*
D03*
X482000D02*
D03*
X493110Y250000D02*
D03*
X481890D02*
D03*
D45*
X491811Y259500D02*
D03*
X480000D02*
D03*
D46*
X477917Y289555D02*
D03*
Y280500D02*
D03*
Y271445D02*
D03*
D47*
X455083Y280500D02*
D03*
D48*
X461500Y298500D02*
D03*
X471736D02*
D03*
M02*
