M48
;Layer_Color=9474304
;FILE_FORMAT=2:4
INCH,TZ
;TYPE=PLATED
T01F00S00C0.0118
T02F00S00C0.0150
T04F00S00C0.0433
T05F00S00C0.0787
%
T01
X45250Y25633
X45467Y25417
Y25850
X45250Y26067
X45467Y26283
X45900
X45683Y26067
X46117
X45900Y25850
X45683Y25633
X46117
X45900Y25417
T02
X48200Y21350
X47967Y22027
X49050Y22300
X48650Y25300
X49794Y25169
X49745Y25735
X49733Y26283
X49671Y26794
X48850Y26600
X48400Y26650
X47550
X48450Y27600
X49050Y28450
X49000Y28962
X50400Y30100
X51450Y30050
X46922Y28350
X46400Y27350
X44900Y27100
X43300Y26959
X43243Y28917
X44425Y28875
X44300Y25888
Y25300
X44700Y23350
X45200Y23800
X46750Y23400
X46500Y22700
X43833Y22027
X43243
T04
X47000Y20550
X48000
X49000
X50000
X51000
X52000
X46000
X45000
X44000
X43000
X42000
X41000
Y30550
X42000
X43000
X44000
T05
X52150Y22500
X48350Y30250
M30
