G04*
G04 #@! TF.GenerationSoftware,Altium Limited,Altium Designer,24.8.2 (39)*
G04*
G04 Layer_Color=16776960*
%FSLAX25Y25*%
%MOIN*%
G70*
G04*
G04 #@! TF.SameCoordinates,DAEAB18A-5E43-4365-A400-F89FC780B00D*
G04*
G04*
G04 #@! TF.FilePolarity,Positive*
G04*
G01*
G75*
%ADD10C,0.00787*%
%ADD11C,0.00500*%
%ADD12C,0.00800*%
%ADD56C,0.00984*%
%ADD57C,0.00600*%
D10*
X485004Y289555D02*
G03*
X485004Y289555I-394J0D01*
G01*
X404410Y200205D02*
Y210795D01*
X525591D01*
Y200205D02*
Y210795D01*
X404410Y200205D02*
X525591D01*
X404410Y310795D02*
X445590D01*
X404410Y300205D02*
Y310795D01*
Y300205D02*
X445590D01*
Y310795D01*
X439457Y230736D02*
Y235264D01*
X446543Y230736D02*
Y235264D01*
X429654Y274122D02*
Y276878D01*
X436346Y274122D02*
Y276878D01*
X440047Y262622D02*
Y265378D01*
X445953Y262622D02*
Y265378D01*
X462953Y241622D02*
Y244378D01*
X457047Y241622D02*
Y244378D01*
X455953Y224122D02*
Y226878D01*
X450047Y224122D02*
Y226878D01*
X430457Y230335D02*
Y234665D01*
X437543Y230335D02*
Y234665D01*
X485642Y229146D02*
X489579D01*
X485642Y234854D02*
X489579D01*
X485642Y243854D02*
X489579D01*
X485642Y238146D02*
X489579D01*
X484528Y262846D02*
X487284D01*
X484528Y256153D02*
X487284D01*
X485532Y252854D02*
X489468D01*
X485532Y247146D02*
X489468D01*
X492953Y283122D02*
Y285878D01*
X487047Y283122D02*
Y285878D01*
X465240Y295547D02*
X467996D01*
X465240Y301453D02*
X467996D01*
D11*
X459610Y288413D02*
Y293295D01*
X473390D01*
X459610Y267705D02*
Y272587D01*
Y267705D02*
X473390D01*
D12*
X415700Y273494D02*
X412701D01*
X415700Y271494D01*
X412701D01*
X415700Y270495D02*
Y269495D01*
Y269995D01*
X413701D01*
Y270495D01*
Y265996D02*
Y267496D01*
X414200Y267996D01*
X415200D01*
X415700Y267496D01*
Y265996D01*
X412701Y264996D02*
X415700D01*
X414200D01*
X413701Y264497D01*
Y263497D01*
X414200Y262997D01*
X415700D01*
Y261498D02*
Y260498D01*
X415200Y259998D01*
X414200D01*
X413701Y260498D01*
Y261498D01*
X414200Y261997D01*
X415200D01*
X415700Y261498D01*
Y258998D02*
Y257999D01*
Y258499D01*
X412701D01*
Y258998D01*
X413701Y255999D02*
Y255000D01*
X414200Y254500D01*
X415700D01*
Y255999D01*
X415200Y256499D01*
X414700Y255999D01*
Y254500D01*
X415700Y253500D02*
Y252001D01*
X415200Y251501D01*
X414700Y252001D01*
Y253000D01*
X414200Y253500D01*
X413701Y253000D01*
Y251501D01*
X415700Y247502D02*
X412701D01*
X415700Y245503D01*
X412701D01*
X415700Y244503D02*
Y243503D01*
Y244003D01*
X413701D01*
Y244503D01*
X415700Y242004D02*
Y241004D01*
Y241504D01*
X412701D01*
Y242004D01*
X415700Y238005D02*
Y239005D01*
X415200Y239505D01*
X414200D01*
X413701Y239005D01*
Y238005D01*
X414200Y237505D01*
X414700D01*
Y239505D01*
X415700Y236506D02*
Y235006D01*
X415200Y234506D01*
X414700Y235006D01*
Y236006D01*
X414200Y236506D01*
X413701Y236006D01*
Y234506D01*
X448749Y277584D02*
X445834D01*
X445251Y278167D01*
Y279334D01*
X445834Y279917D01*
X448749D01*
X445251Y283416D02*
Y281083D01*
X447583Y283416D01*
X448166D01*
X448749Y282833D01*
Y281666D01*
X448166Y281083D01*
X475727Y257251D02*
Y260749D01*
X473977D01*
X473394Y260166D01*
Y259000D01*
X473977Y258417D01*
X475727D01*
X474560D02*
X473394Y257251D01*
X472228Y260749D02*
X469895D01*
Y260166D01*
X472228Y257834D01*
Y257251D01*
X477416Y248251D02*
Y251749D01*
X475666D01*
X475083Y251166D01*
Y250000D01*
X475666Y249417D01*
X477416D01*
X476249D02*
X475083Y248251D01*
X471584Y251749D02*
X472751Y251166D01*
X473917Y250000D01*
Y248834D01*
X473334Y248251D01*
X472167D01*
X471584Y248834D01*
Y249417D01*
X472167Y250000D01*
X473917D01*
X427749Y278916D02*
X424251D01*
Y277166D01*
X424834Y276583D01*
X426000D01*
X426583Y277166D01*
Y278916D01*
Y277749D02*
X427749Y276583D01*
X424251Y273084D02*
Y275417D01*
X426000D01*
X425417Y274251D01*
Y273667D01*
X426000Y273084D01*
X427166D01*
X427749Y273667D01*
Y274834D01*
X427166Y275417D01*
X451251Y240084D02*
X454749D01*
Y241834D01*
X454166Y242417D01*
X453000D01*
X452417Y241834D01*
Y240084D01*
Y241251D02*
X451251Y242417D01*
Y245333D02*
X454749D01*
X453000Y243583D01*
Y245916D01*
X447751Y261084D02*
X451249D01*
Y262834D01*
X450666Y263417D01*
X449500D01*
X448917Y262834D01*
Y261084D01*
Y262251D02*
X447751Y263417D01*
X450666Y264583D02*
X451249Y265166D01*
Y266333D01*
X450666Y266916D01*
X450083D01*
X449500Y266333D01*
Y265749D01*
Y266333D01*
X448917Y266916D01*
X448334D01*
X447751Y266333D01*
Y265166D01*
X448334Y264583D01*
X477416Y239251D02*
Y242749D01*
X475666D01*
X475083Y242166D01*
Y241000D01*
X475666Y240417D01*
X477416D01*
X476249D02*
X475083Y239251D01*
X471584D02*
X473917D01*
X471584Y241583D01*
Y242166D01*
X472167Y242749D01*
X473334D01*
X473917Y242166D01*
X477333Y230751D02*
Y234249D01*
X475583D01*
X475000Y233666D01*
Y232500D01*
X475583Y231917D01*
X477333D01*
X476166D02*
X475000Y230751D01*
X473834D02*
X472667D01*
X473251D01*
Y234249D01*
X473834Y233666D01*
X522416Y212751D02*
Y216249D01*
X520666D01*
X520083Y215666D01*
Y214500D01*
X520666Y213917D01*
X522416D01*
X516584Y212751D02*
X518917D01*
X516584Y215083D01*
Y215666D01*
X517167Y216249D01*
X518334D01*
X518917Y215666D01*
X452333Y303751D02*
Y307249D01*
X450583D01*
X450000Y306666D01*
Y305500D01*
X450583Y304917D01*
X452333D01*
X448834Y303751D02*
X447667D01*
X448251D01*
Y307249D01*
X448834Y306666D01*
X467083Y306166D02*
X467666Y306749D01*
X468833D01*
X469416Y306166D01*
Y303834D01*
X468833Y303251D01*
X467666D01*
X467083Y303834D01*
X463584Y306749D02*
X465917D01*
Y305000D01*
X464751Y305583D01*
X464167D01*
X463584Y305000D01*
Y303834D01*
X464167Y303251D01*
X465334D01*
X465917Y303834D01*
X490583Y275166D02*
X491166Y275749D01*
X492333D01*
X492916Y275166D01*
Y272834D01*
X492333Y272251D01*
X491166D01*
X490583Y272834D01*
X487667Y272251D02*
Y275749D01*
X489417Y274000D01*
X487084D01*
X461166Y224917D02*
X461749Y224334D01*
Y223167D01*
X461166Y222584D01*
X458834D01*
X458251Y223167D01*
Y224334D01*
X458834Y224917D01*
X461166Y226083D02*
X461749Y226666D01*
Y227833D01*
X461166Y228416D01*
X460583D01*
X460000Y227833D01*
Y227249D01*
Y227833D01*
X459417Y228416D01*
X458834D01*
X458251Y227833D01*
Y226666D01*
X458834Y226083D01*
X444166Y244917D02*
X444749Y244334D01*
Y243167D01*
X444166Y242584D01*
X441834D01*
X441251Y243167D01*
Y244334D01*
X441834Y244917D01*
X441251Y248416D02*
Y246083D01*
X443583Y248416D01*
X444166D01*
X444749Y247833D01*
Y246666D01*
X444166Y246083D01*
X435166Y244000D02*
X435749Y243417D01*
Y242251D01*
X435166Y241667D01*
X432834D01*
X432251Y242251D01*
Y243417D01*
X432834Y244000D01*
X432251Y245166D02*
Y246333D01*
Y245749D01*
X435749D01*
X435166Y245166D01*
D56*
X527854Y205500D02*
G03*
X527854Y205500I-492J0D01*
G01*
X403130Y305500D02*
G03*
X403130Y305500I-492J0D01*
G01*
D57*
X407568Y267121D02*
X410067D01*
Y265871D01*
X409650Y265455D01*
X407984D01*
X407568Y265871D01*
Y267121D01*
X410067Y263372D02*
Y264205D01*
X409650Y264622D01*
X408817D01*
X408401Y264205D01*
Y263372D01*
X408817Y262955D01*
X409234D01*
Y264622D01*
X410067Y262122D02*
Y260873D01*
X409650Y260456D01*
X409234Y260873D01*
Y261706D01*
X408817Y262122D01*
X408401Y261706D01*
Y260456D01*
X410067Y259623D02*
Y258790D01*
Y259207D01*
X408401D01*
Y259623D01*
X410900Y256708D02*
Y256291D01*
X410484Y255874D01*
X408401D01*
Y257124D01*
X408817Y257540D01*
X409650D01*
X410067Y257124D01*
Y255874D01*
Y255041D02*
X408401D01*
Y253792D01*
X408817Y253375D01*
X410067D01*
Y251292D02*
Y252126D01*
X409650Y252542D01*
X408817D01*
X408401Y252126D01*
Y251292D01*
X408817Y250876D01*
X409234D01*
Y252542D01*
X407568Y248377D02*
X410067D01*
Y249626D01*
X409650Y250043D01*
X408817D01*
X408401Y249626D01*
Y248377D01*
X407568Y245045D02*
X410067D01*
Y243795D01*
X409650Y243378D01*
X409234D01*
X408817D01*
X408401Y243795D01*
Y245045D01*
Y242545D02*
X409650D01*
X410067Y242129D01*
Y240879D01*
X410484D01*
X410900Y241296D01*
Y241712D01*
X410067Y240879D02*
X408401D01*
M02*
