G04*
G04 #@! TF.GenerationSoftware,Altium Limited,Altium Designer,24.8.2 (39)*
G04*
G04 Layer_Color=16711935*
%FSLAX25Y25*%
%MOIN*%
G70*
G04*
G04 #@! TF.SameCoordinates,DAEAB18A-5E43-4365-A400-F89FC780B00D*
G04*
G04*
G04 #@! TF.FilePolarity,Negative*
G04*
G01*
G75*
%ADD27C,0.14580*%
%ADD28C,0.07099*%
G04:AMPARAMS|DCode=29|XSize=70.99mil|YSize=70.99mil|CornerRadius=19.75mil|HoleSize=0mil|Usage=FLASHONLY|Rotation=180.000|XOffset=0mil|YOffset=0mil|HoleType=Round|Shape=RoundedRectangle|*
%AMROUNDEDRECTD29*
21,1,0.07099,0.03150,0,0,180.0*
21,1,0.03150,0.07099,0,0,180.0*
1,1,0.03950,-0.01575,0.01575*
1,1,0.03950,0.01575,0.01575*
1,1,0.03950,0.01575,-0.01575*
1,1,0.03950,-0.01575,-0.01575*
%
%ADD29ROUNDEDRECTD29*%
%ADD30O,0.09461X0.04737*%
%ADD31O,0.07887X0.04737*%
%ADD40R,0.06299X0.04134*%
%ADD43R,0.06693X0.03740*%
%ADD49R,0.08280X0.06706*%
%ADD50R,0.07493X0.05131*%
%ADD51R,0.05131X0.07296*%
%ADD52R,0.06706X0.08280*%
%ADD53R,0.09265X0.04540*%
%ADD54R,0.09265X0.13595*%
%ADD55R,0.05131X0.07493*%
D27*
X483500Y302500D02*
D03*
X521500Y225000D02*
D03*
D28*
X410000Y205500D02*
D03*
X420000D02*
D03*
X430000D02*
D03*
X450000D02*
D03*
X460000D02*
D03*
X480000D02*
D03*
X500000D02*
D03*
X510000D02*
D03*
X490000D02*
D03*
X470000D02*
D03*
X440000D02*
D03*
X420000Y305500D02*
D03*
X430000D02*
D03*
X440000D02*
D03*
D29*
X520000Y205500D02*
D03*
X410000Y305500D02*
D03*
D30*
X523500Y236374D02*
D03*
Y280626D02*
D03*
D31*
X507752D02*
D03*
Y236374D02*
D03*
D40*
X443000Y238807D02*
D03*
Y227193D02*
D03*
D43*
X434000Y238012D02*
D03*
Y226988D02*
D03*
D49*
X433000Y281405D02*
D03*
Y269595D02*
D03*
D50*
X443000Y269118D02*
D03*
Y258882D02*
D03*
X460000Y237882D02*
D03*
Y248118D02*
D03*
X453000Y220382D02*
D03*
Y230618D02*
D03*
X490000Y279382D02*
D03*
Y289618D02*
D03*
D51*
X482000Y232000D02*
D03*
X493221D02*
D03*
Y241000D02*
D03*
X482000D02*
D03*
X493110Y250000D02*
D03*
X481890D02*
D03*
D52*
X491811Y259500D02*
D03*
X480000D02*
D03*
D53*
X477917Y289555D02*
D03*
Y280500D02*
D03*
Y271445D02*
D03*
D54*
X455083Y280500D02*
D03*
D55*
X461500Y298500D02*
D03*
X471736D02*
D03*
M02*
