G04*
G04 #@! TF.GenerationSoftware,Altium Limited,Altium Designer,24.8.2 (39)*
G04*
G04 Layer_Color=255*
%FSLAX25Y25*%
%MOIN*%
G70*
G04*
G04 #@! TF.SameCoordinates,DAEAB18A-5E43-4365-A400-F89FC780B00D*
G04*
G04*
G04 #@! TF.FilePolarity,Positive*
G04*
G01*
G75*
%ADD33C,0.01575*%
%ADD34C,0.13780*%
%ADD35C,0.06299*%
G04:AMPARAMS|DCode=36|XSize=62.99mil|YSize=62.99mil|CornerRadius=15.75mil|HoleSize=0mil|Usage=FLASHONLY|Rotation=180.000|XOffset=0mil|YOffset=0mil|HoleType=Round|Shape=RoundedRectangle|*
%AMROUNDEDRECTD36*
21,1,0.06299,0.03150,0,0,180.0*
21,1,0.03150,0.06299,0,0,180.0*
1,1,0.03150,-0.01575,0.01575*
1,1,0.03150,0.01575,0.01575*
1,1,0.03150,0.01575,-0.01575*
1,1,0.03150,-0.01575,-0.01575*
%
%ADD36ROUNDEDRECTD36*%
%ADD37O,0.08661X0.03937*%
%ADD38O,0.07087X0.03937*%
%ADD40R,0.06299X0.04134*%
%ADD41R,0.07480X0.05906*%
%ADD42R,0.06693X0.04331*%
%ADD43R,0.06693X0.03740*%
%ADD44R,0.04331X0.06496*%
%ADD45R,0.05906X0.07480*%
%ADD46R,0.08465X0.03740*%
%ADD47R,0.08465X0.12795*%
%ADD48R,0.04331X0.06693*%
D33*
X452504Y260665D02*
D03*
X454669Y262831D02*
D03*
X459000D02*
D03*
X452504Y256335D02*
D03*
X456835Y260665D02*
D03*
X454669Y258500D02*
D03*
Y254169D02*
D03*
X456835Y256335D02*
D03*
X461165Y260665D02*
D03*
Y256335D02*
D03*
X459000Y258500D02*
D03*
Y254169D02*
D03*
D34*
X483500Y302500D02*
D03*
X521500Y225000D02*
D03*
D35*
X410000Y205500D02*
D03*
X420000D02*
D03*
X430000D02*
D03*
X450000D02*
D03*
X460000D02*
D03*
X480000D02*
D03*
X500000D02*
D03*
X510000D02*
D03*
X490000D02*
D03*
X470000D02*
D03*
X440000D02*
D03*
X420000Y305500D02*
D03*
X430000D02*
D03*
X440000D02*
D03*
D36*
X520000Y205500D02*
D03*
X410000Y305500D02*
D03*
D37*
X523500Y236374D02*
D03*
Y280626D02*
D03*
D38*
X507752D02*
D03*
Y236374D02*
D03*
D40*
X443000Y238807D02*
D03*
Y227193D02*
D03*
D41*
X433000Y281405D02*
D03*
Y269595D02*
D03*
D42*
X443000Y269118D02*
D03*
Y258882D02*
D03*
X460000Y237882D02*
D03*
Y248118D02*
D03*
X453000Y220382D02*
D03*
Y230618D02*
D03*
X490000Y279382D02*
D03*
Y289618D02*
D03*
D43*
X434000Y238012D02*
D03*
Y226988D02*
D03*
D44*
X482000Y232000D02*
D03*
X493221D02*
D03*
Y241000D02*
D03*
X482000D02*
D03*
X493110Y250000D02*
D03*
X481890D02*
D03*
D45*
X491811Y259500D02*
D03*
X480000D02*
D03*
D46*
X477917Y289555D02*
D03*
Y280500D02*
D03*
Y271445D02*
D03*
D47*
X455083Y280500D02*
D03*
D48*
X461500Y298500D02*
D03*
X471736D02*
D03*
M02*
